<svg xmlns="http://www.w3.org/2000/svg" viewBox="0 0 100 100">
  <rect width="100" height="100" rx="20" fill="#42a7f0"/>
  <path d="M50 30c-8.284 0-15 6.716-15 15 0 8.284 6.716 15 15 15s15-6.716 15-15c0-8.284-6.716-15-15-15zm0 6c4.971 0 9 4.029 9 9s-4.029 9-9 9-9-4.029-9-9 4.029-9 9-9z" fill="white"/>
  <path d="M25 70c0-13.807 11.193-25 25-25s25 11.193 25 25v5H25v-5z" fill="white"/>
  <rect x="80" y="25" width="8" height="12" rx="2" fill="white"/>
  <rect x="80" y="42" width="8" height="12" rx="2" fill="white"/>
  <rect x="80" y="59" width="8" height="12" rx="2" fill="white"/>
</svg>
